# xmcd
#
# Track frame offsets: 
#        150
#        25347
#        42692
#        67552
#        83625
#        99685
#        114890
#        127932
#        143390
#        168290
#        204372
#
# Disc length: 3092 seconds
#
# Revision: 0
# Processed by: cddbd v1.5.2PL0 Copyright (c) Steve Scherf et al.
# Submitted via: ExactAudioCopy v0.95b1
#
DISCID=800c120b
DTITLE=Chris Aaron  - Born With The Blues 
DYEAR=1997
DGENRE=Blues
TTITLE0=Across The Border
TTITLE1=Grain Of Salt
TTITLE2=Born With The Blues
TTITLE3=Soul Searching
TTITLE4=Sweet Honey Wine
TTITLE5=Texas Heat
TTITLE6=Mo' Money
TTITLE7=Love Chile
TTITLE8=Do It Again
TTITLE9=Bridge Of Sighs
TTITLE10=Born With The Blues (Acoustic)
EXTD=
EXTT0=
EXTT1=
EXTT2=
EXTT3=
EXTT4=
EXTT5=
EXTT6=
EXTT7=
EXTT8=
EXTT9=
EXTT10=
PLAYORDER=
